<svg width="32" height="32" viewBox="0 0 32 32" fill="none" xmlns="http://www.w3.org/2000/svg">
<path d="M26.5586 19.8917C26.1228 19.8917 25.6987 19.9437 25.2919 20.041L25.0658 19.433C26.36 19.1174 27.952 18.9341 29.9205 20.1629C30.2674 20.3792 30.7238 20.2738 30.94 19.927C31.1567 19.5802 31.0565 19.1147 30.7044 18.907C28.6201 17.6774 26.4184 17.2899 25.1891 17.1679C25.2756 17.0044 25.3253 16.8182 25.3253 16.6203V15.6821C25.3253 15.0345 24.1286 14.5095 23.481 14.5095H23.2383L22.9165 13.6479L21.4865 13.4435C21.4519 13.3603 21.408 13.2796 21.352 13.2039L17.5835 8.11293C17.5835 8.11293 16.7101 6.96939 15.563 6.48512C14.399 5.94418 12.6572 6.14436 11.712 7.57653C10.272 9.75865 8.52056 12.6916 8.10847 13.3369C7.68458 14.0006 7.80995 14.8705 8.45393 15.3237L10.9341 17.0264L0.304384 17.0251C0.304241 17.0251 0.303957 17.0251 0.303672 17.0251C0.196864 17.0251 0.0980191 17.0811 0.0431213 17.1726C-0.0116342 17.2644 -0.0141942 17.3785 0.0364369 17.4725L0.943104 19.1523C0.986055 19.2319 1.0625 19.2882 1.15132 19.3058L5.18339 20.1052C2.91594 20.7617 1.25308 22.8567 1.25308 25.3333C1.25308 28.3336 3.69411 30.7747 6.69464 30.7747C9.69517 30.7747 12.136 28.3337 12.136 25.3333C12.136 25.3037 12.1356 25.274 12.135 25.2445H19.6768C19.6874 25.2457 19.6977 25.246 19.708 25.246C19.8369 25.246 19.9547 25.1634 19.9958 25.0374C21.1329 21.5785 23.0543 20.3722 23.7152 20.0483L23.9127 20.5799C22.2464 21.5111 21.1173 23.2925 21.1173 25.3333C21.1173 28.3336 23.558 30.7747 26.5585 30.7747C29.5591 30.7747 32.0002 28.3337 32.0002 25.3333C32.0002 22.3328 29.5591 19.8917 26.5586 19.8917ZM6.69471 29.2944C4.51053 29.2944 2.73333 27.5176 2.73333 25.3333C2.73333 23.149 4.51053 21.3722 6.69471 21.3722C8.26022 21.3722 9.6161 22.285 10.2587 23.6065L6.78602 24.8812C6.4023 25.0221 6.20533 25.4475 6.3462 25.831C6.45628 26.1306 6.73944 26.3163 7.04124 26.3163C7.12593 26.3163 7.2119 26.3018 7.29603 26.2708L10.6438 25.0421C10.651 25.1383 10.6555 25.2351 10.6555 25.3333C10.6556 27.5175 8.87882 29.2944 6.69471 29.2944ZM19.8207 17.0491C18.0994 17.0832 17.0559 17.9222 16.4834 18.6187L13.5674 16.0447L16.2444 10.7576L19.5904 14.6162C19.9394 15.0166 20.5225 15.1185 20.9841 14.867L21.8355 14.9887L22.5926 17.0478L19.8207 17.0491ZM26.5586 29.2944C24.3744 29.2944 22.5977 27.5176 22.5977 25.3333C22.5977 23.9293 23.3326 22.6945 24.4369 21.9909L25.8646 25.8337C25.9758 26.1319 26.2582 26.3163 26.5587 26.3163C26.6445 26.3163 26.7315 26.3014 26.8166 26.2698C27.1997 26.1274 27.3951 25.7015 27.2524 25.3182L25.8129 21.4436C26.0548 21.3974 26.3037 21.3722 26.5586 21.3722C28.7428 21.3722 30.5199 23.149 30.5199 25.3333C30.5199 27.5175 28.7427 29.2944 26.5586 29.2944Z" fill="black"/>
<path d="M17.0739 6.46239C18.5152 6.63099 19.8201 5.59931 19.9887 4.1581C20.1573 2.71697 19.1254 1.41194 17.6843 1.2434C16.2431 1.07473 14.9381 2.10648 14.7697 3.54769C14.6009 4.98904 15.6327 6.29371 17.0739 6.46239Z" fill="black"/>
</svg>
