<svg width="32" height="32" viewBox="0 0 32 32" fill="none" xmlns="http://www.w3.org/2000/svg">
<g clip-path="url(#clip0)">
<path d="M29.4343 24.8079H2.56569C1.4075 24.8079 0.468567 23.869 0.468567 22.7107V22.2979C0.468567 21.1397 1.40744 20.2007 2.56569 20.2007H29.4342C30.5924 20.2007 31.5314 21.1396 31.5314 22.2979V22.7107C31.5314 23.869 30.5925 24.8079 29.4343 24.8079V24.8079Z" fill="#E94444"/>
<path d="M29.4343 16.5725H2.56569C1.4075 16.5725 0.468567 15.6337 0.468567 14.4754V14.0625C0.468567 12.9043 1.40744 11.9654 2.56569 11.9654H29.4342C30.5924 11.9654 31.5314 12.9043 31.5314 14.0625V14.4754C31.5314 15.6337 30.5925 16.5725 29.4343 16.5725V16.5725Z" fill="#9E5528"/>
<path d="M31.5313 22.2976V22.7106C31.5313 23.8691 30.5928 24.8082 29.4343 24.8082H28.2072C29.3657 24.8082 30.3041 23.8691 30.3041 22.7106V22.2976C30.3041 21.1398 29.3656 20.2007 28.2072 20.2007H29.4343C30.5928 20.2007 31.5313 21.1399 31.5313 22.2976Z" fill="#D83131"/>
<path d="M31.5313 14.0625V14.4755C31.5313 15.6339 30.5928 16.5724 29.4343 16.5724H28.2072C29.3657 16.5724 30.3041 15.6339 30.3041 14.4755V14.0625C30.3041 12.9046 29.3656 11.9655 28.2072 11.9655H29.4343C30.5928 11.9655 31.5313 12.9046 31.5313 14.0625V14.0625Z" fill="#904D24"/>
<path d="M16 0.51593C5.52592 0.667555 2.00686 6.34918 0.845049 9.65043C0.446987 10.7816 1.29567 11.9654 2.49492 11.9654H16H29.5049C30.713 11.9654 31.5509 10.7697 31.148 9.63074C29.9792 6.32668 26.4533 0.667243 16 0.51593V0.51593Z" fill="#FE9738"/>
<path d="M29.5049 11.9655H29.3556C29.7623 11.5119 29.9298 10.8514 29.703 10.2091C28.534 6.90444 25.0081 1.24537 14.5548 1.09419C11.8505 1.13294 9.60929 1.54094 7.7536 2.18138C9.85797 1.21481 12.5522 0.565625 16 0.515625C26.4533 0.667437 29.9792 6.3265 31.1482 9.63056C31.5506 10.7696 30.7127 11.9655 29.5049 11.9655Z" fill="#FE860A"/>
<path d="M29.4343 24.8079H16H2.56571C2.56571 24.8079 1.63915 29.282 6.9119 31.0422C7.81515 31.3437 8.75809 31.4841 9.70371 31.4841H16H22.2963C23.2419 31.4841 24.1848 31.3437 25.0881 31.0422C30.3609 29.282 29.4343 24.8079 29.4343 24.8079Z" fill="#FE9738"/>
<path d="M25.0881 31.042C24.1846 31.3439 23.2417 31.4844 22.2964 31.4844H20.873C21.819 31.4844 22.7618 31.3439 23.6653 31.042C28.9376 29.2819 28.0109 24.8082 28.0109 24.8082H29.4343C29.4343 24.8082 30.3609 29.2819 25.0881 31.042V31.042Z" fill="#FE860A"/>
<path d="M29.4834 21.036C29.4834 22.083 28.2669 22.6506 27.458 21.9858C27.1255 21.7125 26.7328 21.496 26.1105 21.496C24.4242 21.496 24.4242 22.8317 22.738 22.8317C21.0517 22.8317 21.0517 21.496 19.3654 21.496C17.6792 21.496 17.6792 22.8317 15.993 22.8317C14.3068 22.8317 14.3068 21.496 12.6206 21.496C10.9343 21.496 10.9343 22.8317 9.24805 22.8317C7.56186 22.8317 7.56186 21.496 5.87561 21.496C5.25355 21.496 4.86099 21.7124 4.52861 21.9855C3.71967 22.6503 2.50311 22.0829 2.50311 21.0358V18.5579H29.4835V21.036H29.4834Z" fill="#BBEC6C"/>
<path d="M29.4837 18.558V21.0361C29.4837 22.0159 28.4184 22.5757 27.6192 22.0989C27.9722 21.8927 28.2259 21.5147 28.2259 21.0361V18.558H29.4837Z" fill="#A2E62E"/>
<path d="M2.51654 16.5725V18.5764H5.40898C6.01073 18.5764 6.49848 19.0642 6.49848 19.6659V25.4372C6.49848 26.2065 7.1221 26.8301 7.89141 26.8301C8.66072 26.8301 9.28435 26.2065 9.28435 25.4372V19.6659C9.28435 19.0641 9.77216 18.5764 10.3738 18.5764H29.4833V16.5725H2.51654Z" fill="#FEE45A"/>
<path d="M28.226 16.5723H29.4837V18.5761H28.226V16.5723Z" fill="#FEDF30"/>
<path d="M11.6766 5.33397C11.8432 5.33397 12.0046 5.24491 12.0893 5.08803L12.4958 4.33584C12.6189 4.10815 12.5341 3.82384 12.3064 3.70078C12.0785 3.57772 11.7943 3.66265 11.6713 3.89022L11.2648 4.6424C11.1418 4.87009 11.2266 5.15447 11.4543 5.27747C11.5251 5.31578 11.6013 5.33397 11.6766 5.33397Z" fill="black"/>
<path d="M16.463 4.91664V4.06164C16.463 3.80283 16.2532 3.59302 15.9944 3.59302C15.7356 3.59302 15.5258 3.80283 15.5258 4.06164V4.91664C15.5258 5.17546 15.7356 5.38527 15.9944 5.38527C16.2532 5.38527 16.463 5.17546 16.463 4.91664Z" fill="black"/>
<path d="M20.3234 5.32763C20.4033 5.32763 20.4841 5.30719 20.5581 5.26432C20.782 5.13444 20.8583 4.84769 20.7284 4.62382L20.2994 3.88419C20.1696 3.66032 19.8828 3.58413 19.6589 3.71394C19.4351 3.84382 19.3588 4.13057 19.4887 4.35444L19.9176 5.09407C20.0046 5.24388 20.1618 5.32763 20.3234 5.32763V5.32763Z" fill="black"/>
<path d="M32 14.4754V14.0625C32 13.1872 31.5591 12.4133 30.8881 11.95C31.046 11.8225 31.1884 11.6722 31.3103 11.4998C31.726 10.912 31.8304 10.1548 31.5898 9.47447C31.0085 7.83135 29.8005 5.46516 27.3464 3.52354C24.5169 1.28491 20.7017 0.115287 16.0068 0.0473491C16.0023 0.0472866 15.9977 0.0472866 15.9932 0.0473491C13.8713 0.0780366 11.9056 0.337662 10.1508 0.818974C9.90119 0.887412 9.75431 1.14529 9.82275 1.39485C9.89119 1.64441 10.149 1.79141 10.3986 1.72285C12.0753 1.26297 13.9597 1.0146 15.9999 0.984599C26.1383 1.13397 29.5657 6.56335 30.7061 9.78704C30.8475 10.1868 30.7887 10.6138 30.5449 10.9588C30.3032 11.3007 29.9241 11.4968 29.5048 11.4968H2.49494C2.07412 11.4968 1.693 11.2996 1.44944 10.9556C1.20875 10.6158 1.14962 10.1967 1.28712 9.80597C2.11844 7.44372 4.0275 4.24272 8.40119 2.40847C8.63988 2.30835 8.75225 2.03379 8.65213 1.7951C8.552 1.55635 8.27725 1.44416 8.03875 1.54416C5.90912 2.43729 4.12712 3.72766 2.74237 5.37941C1.72344 6.59472 0.936375 7.97935 0.403062 9.49485C0.163312 10.1762 0.265875 10.9061 0.684625 11.4973C0.806563 11.6695 0.951562 11.8207 1.11306 11.9493C0.441312 12.4125 0 13.1868 0 14.0625V14.4754C0 15.7128 0.880562 16.7484 2.04794 16.9886L2.03856 19.7871C0.875938 20.0309 0 21.0638 0 22.2978V22.7107C0 23.9475 0.879625 24.9825 2.04606 25.2235C2.01462 25.7167 2.03075 26.517 2.31512 27.4075C3.08156 29.8075 5.15725 30.9505 6.7635 31.4867C7.68981 31.7959 8.67906 31.9527 9.70375 31.9527H22.2963C23.321 31.9527 24.3102 31.7959 25.2365 31.4867C26.8428 30.9505 28.9185 29.8075 29.6849 27.4075C29.9693 26.5171 29.9854 25.7167 29.9539 25.2235C31.1204 24.9826 32 23.9475 32 22.7107V22.2978C32 21.0605 31.1193 20.0258 29.9521 19.7857V16.9886C31.1194 16.7485 32 15.7128 32 14.4754V14.4754ZM0.93725 22.7107V22.2978C0.93725 21.5857 1.39731 20.9803 2.03538 20.7597L2.03444 21.0358C2.03444 21.701 2.4075 22.2905 3.00794 22.5743C3.61187 22.8598 4.30863 22.7729 4.82606 22.3477C5.06813 22.1487 5.36281 21.9647 5.87556 21.9647C5.9295 21.9647 5.98031 21.9668 6.02987 21.9699V24.3392H2.56569C1.66775 24.3392 0.93725 23.6087 0.93725 22.7107ZM19.6117 19.045H29.0148V21.036C29.0148 21.3396 28.8515 21.598 28.5781 21.7272C28.3011 21.858 27.9936 21.8194 27.7556 21.6238C27.4177 21.3461 26.9254 21.0273 26.1105 21.0273C25.1043 21.0273 24.5884 21.436 24.1333 21.7965C23.7337 22.1131 23.418 22.3631 22.738 22.3631C22.0579 22.3631 21.7423 22.1131 21.3427 21.7965C20.8876 21.436 20.3717 21.0273 19.3654 21.0273C18.3592 21.0273 17.8208 21.4538 17.3882 21.7965C16.9886 22.1131 16.6729 22.3631 15.993 22.3631C15.313 22.3631 14.9974 22.1131 14.5978 21.7965C14.1653 21.4538 13.6268 21.0273 12.6206 21.0273C11.6144 21.0273 11.0986 21.436 10.6434 21.7965C10.3585 22.0222 10.1152 22.2132 9.75306 22.3046V19.6659C9.75306 19.3235 10.0316 19.045 10.3739 19.045H17.4143C17.6731 19.045 17.8829 18.8352 17.8829 18.5764C17.8829 18.3176 17.6731 18.1078 17.4143 18.1078H10.3739C9.51469 18.1078 8.81575 18.8067 8.81575 19.6659V25.4372C8.81575 25.9469 8.40113 26.3616 7.89144 26.3616C7.38175 26.3616 6.96712 25.9469 6.96712 25.4372V19.6659C6.96712 18.8067 6.26812 18.1078 5.409 18.1078H2.98519V17.0412H29.0148V18.1078H19.6117C19.3529 18.1078 19.1431 18.3176 19.1431 18.5764C19.1431 18.8352 19.3529 19.045 19.6117 19.045V19.045ZM5.40894 19.045C5.75131 19.045 6.02987 19.3235 6.02987 19.6659V21.0313C5.97969 21.029 5.92863 21.0273 5.87556 21.0273C5.06094 21.0273 4.56875 21.3459 4.231 21.6235C3.99287 21.8191 3.68544 21.8578 3.40831 21.7268C3.13488 21.5977 2.97163 21.3393 2.97163 21.0358V19.045H5.40894ZM28.7921 27.1224C28.2728 28.7485 26.9767 29.9177 24.9397 30.5977C24.1093 30.8749 23.2199 31.0155 22.2962 31.0155H9.70375C8.78012 31.0155 7.89075 30.8749 7.06031 30.5977C3.07 29.2657 2.90288 26.3233 2.97856 25.2764H6.02994V25.4372C6.02994 26.4637 6.865 27.2988 7.8915 27.2988C8.918 27.2988 9.75306 26.4637 9.75306 25.4372V25.2764H29.0191C29.0455 25.6767 29.036 26.3585 28.7921 27.1224ZM31.0627 22.2978V22.7107C31.0627 23.6087 30.3322 24.3392 29.4342 24.3392H9.753V23.2612C10.4402 23.1516 10.8534 22.8257 11.2253 22.5312C11.6249 22.2147 11.9406 21.9647 12.6206 21.9647C13.3006 21.9647 13.6162 22.2147 14.0157 22.5312C14.4484 22.8739 14.9867 23.3004 15.9929 23.3004C16.9991 23.3004 17.515 22.8918 17.9701 22.5312C18.3698 22.2147 18.6854 21.9647 19.3654 21.9647C20.0454 21.9647 20.3611 22.2147 20.7607 22.5312C21.2158 22.8917 21.7317 23.3004 22.7379 23.3004C23.7442 23.3004 24.2601 22.8918 24.7152 22.5312C25.1148 22.2147 25.4304 21.9647 26.1104 21.9647C26.6234 21.9647 26.9182 22.1488 27.1604 22.348C27.6778 22.7732 28.3744 22.8601 28.9784 22.5747C29.5789 22.2909 29.952 21.7013 29.952 21.0361V20.7543C30.5969 20.9712 31.0627 21.5809 31.0627 22.2978V22.2978ZM29.4343 16.1039H2.56569C1.66775 16.1039 0.937187 15.3733 0.937187 14.4754V14.0625C0.937187 13.1646 1.66775 12.434 2.56569 12.434H29.4342C30.3322 12.434 31.0627 13.1646 31.0627 14.0625V14.4754C31.0627 15.3733 30.3323 16.1039 29.4343 16.1039V16.1039Z" fill="black"/>
</g>
<defs>
<clipPath id="clip0">
<rect width="32" height="32" fill="white"/>
</clipPath>
</defs>
</svg>
