<svg width="32" height="32" viewBox="0 0 32 32" fill="none" xmlns="http://www.w3.org/2000/svg">
<path d="M31.7869 13.2534L28.2708 3.78241C27.667 2.125 26.424 1.08319 25.0033 1.08319H6.96115C5.54051 1.08319 4.33296 2.07764 3.69367 3.78241L0.17758 13.206C0.0710322 13.4901 0 13.8216 0 14.1058V26.8442C0 29.0699 1.34961 30.9167 3.05438 30.9167H28.9456C30.6149 30.9167 32 29.1172 32 26.8442V14.1531C31.9645 13.8216 31.8935 13.4901 31.7869 13.2534ZM22.162 12.1169C21.4517 12.1169 20.8479 12.7798 20.6704 13.7269C20.6349 13.9163 19.818 18.9833 15.9467 18.9833C12.182 18.9833 11.3296 14.2952 11.2231 13.7269C11.081 12.7798 10.4772 12.1169 9.73141 12.1169H3.9778L6.42841 5.5819C6.53496 5.34512 6.74806 5.10835 6.96115 5.10835H25.0033C25.2164 5.10835 25.4295 5.25041 25.5361 5.5819L27.9512 12.1169H22.162V12.1169Z" fill="#FFC700"/>
</svg>
