<svg width="32" height="32" viewBox="0 0 32 32" fill="none" xmlns="http://www.w3.org/2000/svg">
<g clip-path="url(#clip0)">
<path d="M25.5403 30.1556C19.4639 32.8051 10.6584 32.6405 4.90276 29.3795C-3.1684 24.8068 -1.00242 16.5808 9.40208 13.8293C9.93637 13.6881 10.4832 14.0061 10.625 14.5398C10.7662 15.0741 10.4482 15.6209 9.9145 15.7627C1.78254 17.9177 -0.964361 23.7554 5.88823 27.6397C11.0214 30.5473 19.1459 30.7627 24.7404 28.3221C25.2466 28.1015 25.8359 28.3327 26.0571 28.8389C26.2777 29.3451 26.0464 29.9344 25.5403 30.1556Z" fill="#E2E0E0"/>
<path d="M29.1603 27.9497C28.9716 28.1109 28.741 28.1896 28.511 28.1896C27.5839 28.1896 27.158 27.0309 27.8605 26.4299C32.6496 22.3372 28.8789 17.5627 22.0864 15.7628C21.5527 15.6209 21.2346 15.0741 21.3759 14.5398C21.5177 14.0061 22.0651 13.6881 22.5988 13.8293C32.0165 16.3199 34.6574 23.25 29.1603 27.9497V27.9497Z" fill="#E2E0E0"/>
<path d="M26.9987 31.4985C28.6553 31.4985 29.9982 30.1556 29.9982 28.499C29.9982 26.8424 28.6553 25.4995 26.9987 25.4995C25.3421 25.4995 23.9991 26.8424 23.9991 28.499C23.9991 30.1556 25.3421 31.4985 26.9987 31.4985Z" fill="#F3D4B7"/>
<path d="M12.9446 20.1933C9.42341 20.6549 7.50164 21.8336 7.50164 22.4999C7.50164 22.7292 7.7741 23.0492 8.2309 23.3541C8.68958 23.6609 8.81269 24.2821 8.50586 24.7414C8.19941 25.1986 7.57906 25.3239 7.11857 25.0164C4.01991 22.9424 5.07225 19.2064 12.6846 18.2111C13.2308 18.1393 13.7338 18.5248 13.8057 19.0723C13.8776 19.6197 13.492 20.1221 12.9446 20.1933Z" fill="#E2E0E0"/>
<path d="M26.4988 22.4999C26.4988 26.3712 17.4832 27.8191 11.2205 26.5461C10.6793 26.4361 10.33 25.9081 10.44 25.3669C10.55 24.8258 11.0786 24.4764 11.6192 24.5864C14.8707 25.2462 19.3473 25.1499 22.3713 24.0365C23.833 23.4978 24.4991 22.8623 24.4991 22.4999C24.4991 21.8628 22.6769 20.6679 19.0562 20.1933C18.5088 20.1221 18.1232 19.6197 18.1951 19.0723C18.2669 18.5248 18.7687 18.1393 19.3161 18.2111C22.0816 18.5727 26.4988 19.7422 26.4988 22.4999V22.4999Z" fill="#E2E0E0"/>
<path d="M9.91445 15.7628C8.96647 16.014 8.0841 16.3183 7.27923 16.6676C6.94178 16.094 6.62433 15.5022 6.33875 14.8979C7.2836 14.4773 8.31032 14.118 9.40203 13.8293C9.93632 13.6881 10.4831 14.0061 10.625 14.5398C10.7662 15.0741 10.4481 15.6209 9.91445 15.7628Z" fill="#CECCCC"/>
<path d="M13.8058 19.0723C13.8776 19.6197 13.492 20.1221 12.9446 20.1933C11.8529 20.3364 10.9424 20.5395 10.1982 20.7695C9.76636 20.2508 9.32643 19.6934 8.89337 19.1035C9.96758 18.7023 11.2555 18.398 12.6847 18.2111C13.2308 18.1393 13.7339 18.5248 13.8058 19.0723Z" fill="#CECCCC"/>
<path d="M19.3162 18.2111C20.7453 18.398 22.0333 18.7023 23.1075 19.1035C22.675 19.6928 22.2345 20.2508 21.802 20.7695C21.0578 20.5395 20.1479 20.3364 19.0562 20.1933C18.5088 20.1221 18.1232 19.6197 18.1951 19.0723C18.2669 18.5248 18.7687 18.1393 19.3162 18.2111V18.2111Z" fill="#CECCCC"/>
<path d="M25.6621 14.8979C25.3765 15.5022 25.0591 16.094 24.7216 16.6676C23.9167 16.3183 23.0344 16.014 22.0864 15.7628C21.5527 15.6209 21.2346 15.0741 21.3759 14.5398C21.5177 14.0061 22.0651 13.6881 22.5988 13.8293C23.6905 14.118 24.7172 14.4773 25.6621 14.8979V14.8979Z" fill="#CECCCC"/>
<path d="M25.1215 9.12436C25.1215 15.7096 17.0071 22.9448 16.6621 23.2497C16.2865 23.5808 15.7194 23.5853 15.3386 23.2497C14.9936 22.9448 6.87921 15.7096 6.87921 9.12436C6.87921 4.09512 10.9711 0.00323486 16.0003 0.00323486C21.0296 0.00323486 25.1215 4.09512 25.1215 9.12436V9.12436Z" fill="#F79CAF"/>
<path d="M25.1215 9.12439C25.1215 15.7096 17.0071 22.9448 16.6622 23.2498C16.4728 23.4166 16.2366 23.4997 16.0004 23.4997C15.5388 23.4997 15.3061 23.2285 14.938 22.8836C16.6347 21.2957 22.9968 14.9554 22.9968 9.12439C22.9968 4.45447 19.4686 0.592548 14.938 0.0645024C20.3764 -0.569027 25.1215 3.69696 25.1215 9.12439Z" fill="#E3889B"/>
<path d="M16.0003 14.0012C18.7614 14.0012 20.9996 11.7629 20.9996 9.00193C20.9996 6.24093 18.7614 4.00269 16.0003 4.00269C13.2393 4.00269 11.0011 6.24093 11.0011 9.00193C11.0011 11.7629 13.2393 14.0012 16.0003 14.0012Z" fill="#E2E0E0"/>
<path d="M20.9996 9.00187C20.9996 12.1508 18.0999 14.5359 15.0005 13.9005C17.2796 13.4362 18.9999 11.4159 18.9999 9.00187C18.9999 6.58786 17.2796 4.56754 15.0005 4.10323C18.0974 3.46833 20.9996 5.85066 20.9996 9.00187V9.00187Z" fill="#CECCCC"/>
<path d="M9.50138 27.9991C11.158 27.9991 12.5009 26.6562 12.5009 24.9995C12.5009 23.3429 11.158 22 9.50138 22C7.84477 22 6.50183 23.3429 6.50183 24.9995C6.50183 26.6562 7.84477 27.9991 9.50138 27.9991Z" fill="#F3D4B7"/>
<path d="M9.50138 27.9991C11.158 27.9991 12.5009 26.6562 12.5009 24.9995C12.5009 23.3429 11.158 22 9.50138 22C7.84477 22 6.50183 23.3429 6.50183 24.9995C6.50183 26.6562 7.84477 27.9991 9.50138 27.9991Z" fill="#F3D4B7"/>
<path d="M12.5009 24.9995C12.5009 27.0673 10.4473 28.5167 8.50153 27.8278C9.66573 27.4154 10.5012 26.3031 10.5012 24.9995C10.5012 23.6959 9.66573 22.5836 8.50153 22.1712C10.4507 21.4812 12.5009 22.9354 12.5009 24.9995Z" fill="#E1C3A7"/>
<path d="M29.9983 28.499C29.9983 30.5667 27.9447 32.0161 25.9989 31.3273C27.1631 30.9148 27.9986 29.8025 27.9986 28.499C27.9986 27.1954 27.1631 26.0831 25.9989 25.6706C27.9481 24.9806 29.9983 26.4348 29.9983 28.499Z" fill="#E1C3A7"/>
</g>
<defs>
<clipPath id="clip0">
<rect width="32" height="32" fill="white"/>
</clipPath>
</defs>
</svg>
