<svg width="32" height="32" viewBox="0 0 32 32" fill="none" xmlns="http://www.w3.org/2000/svg">
<g clip-path="url(#clip0)">
<path d="M32 7.07101V7.91702L31.0625 9.15388H21.1609L19.6719 7.91702L18.3391 5.75821L19.6719 3.8725H29.5244C30.8631 3.8725 32 5.30478 32 7.07101Z" fill="#FF9000"/>
<path d="M19.6719 3.8725V7.91702L18.0838 9.15388H8.76465L7.30878 7.91702V7.07101C7.30878 5.30478 8.39378 3.8725 9.73253 3.8725H19.6719Z" fill="#EDBE00"/>
<path d="M32 10.3907V19.9747C32 21.741 30.8631 23.1732 29.5244 23.1732H25.635L24.9136 22.5725V18.5917L25.635 17.5546L24.9136 18.6145H20.488L19.6719 17.5546L18.3391 14.0671L19.6719 10.3907L21.1396 9.15387H31.0625L32 10.3907Z" fill="#FF9000"/>
<path d="M19.6719 10.3907V17.5546L18.8817 18.4163H8.14234L7.30878 17.5546V10.3907L8.76465 9.15387H18.0838L19.6719 10.3907Z" fill="#EDBE00"/>
<path d="M7.30878 7.91699H19.6719V10.3907H7.30878V7.91699Z" fill="#0B799C"/>
<path d="M19.6719 7.91699H32V10.3907H19.6719V7.91699Z" fill="#07485E"/>
<path d="M25.635 25.3534V28.0539L23.5563 29.2256L20.4925 33.4779L19.6719 35.8725H12.8175L9.85004 26.7131L12.8175 17.5546H19.6719L20.3013 20.0465L23.9238 24.5932L25.635 25.3534Z" fill="#80B405"/>
<path d="M25.635 17.5546V25.3534C22.3706 25.3534 19.6719 21.8622 19.6719 17.5546H25.635Z" fill="#BDEAF9"/>
<path d="M19.6719 35.8725H25.635V28.0539C22.3706 28.0539 19.6719 31.5657 19.6719 35.8725Z" fill="#BDEAF9"/>
<path d="M12.8175 17.5546V35.8725H5.96313L5.1425 33.4779L2.07875 29.2256L0 28.0539V25.3534L1.71125 24.5932L5.33375 20.0465L5.96313 17.5546H12.8175Z" fill="#ADE232"/>
<path d="M5.96313 17.5546C5.96313 21.8622 3.26437 25.3534 0 25.3534V17.5546H5.96313Z" fill="#ECF9FD"/>
<path d="M5.96313 35.8725H0V28.0539C3.26437 28.0539 5.96313 31.5657 5.96313 35.8725Z" fill="#ECF9FD"/>
<path d="M14.8285 26.7131C14.8285 28.1742 13.9251 29.3633 12.8175 29.3633L11.9917 30.5445L12.8175 31.837C14.9583 31.837 16.7026 29.5389 16.7026 26.7131C16.7026 23.8881 14.9583 21.59 12.8175 21.59L11.9917 22.8532L12.8175 24.0637C13.9251 24.0637 14.8285 25.252 14.8285 26.7131V26.7131Z" fill="#BDEAF9"/>
<path d="M10.8097 26.7131C10.8097 28.1742 11.7099 29.3633 12.8175 29.3633V31.837C10.6767 31.837 8.93567 29.5389 8.93567 26.7131C8.93567 23.8881 10.6767 21.59 12.8175 21.59V24.0637C11.7099 24.0637 10.8097 25.252 10.8097 26.7131Z" fill="#ECF9FD"/>
</g>
<defs>
<clipPath id="clip0">
<rect width="32" height="32" fill="white"/>
</clipPath>
</defs>
</svg>
