<svg width="20" height="20" viewBox="0 0 20 20" fill="none" xmlns="http://www.w3.org/2000/svg">
<g clip-path="url(#clip0)">
<path d="M19.7556 18.5775L14.0682 12.8901C15.1699 11.5293 15.8332 9.80009 15.8332 7.91679C15.8332 3.55183 12.2815 0.000183105 7.91656 0.000183105C3.55161 0.000183105 0 3.55179 0 7.91675C0 12.2817 3.55164 15.8333 7.9166 15.8333C9.7999 15.8333 11.5291 15.17 12.8899 14.0684L18.5773 19.7558C18.7398 19.9183 18.9531 20 19.1665 20C19.3798 20 19.5932 19.9183 19.7557 19.7558C20.0815 19.43 20.0815 18.9033 19.7556 18.5775ZM7.9166 14.1667C4.46996 14.1667 1.66666 11.3634 1.66666 7.91675C1.66666 4.4701 4.46996 1.66681 7.9166 1.66681C11.3632 1.66681 14.1665 4.4701 14.1665 7.91675C14.1665 11.3634 11.3632 14.1667 7.9166 14.1667Z" fill="black"/>
</g>
<defs>
<clipPath id="clip0">
<rect width="20" height="20" fill="white"/>
</clipPath>
</defs>
</svg>
