<svg width="32" height="32" viewBox="0 0 32 32" fill="none" xmlns="http://www.w3.org/2000/svg">
<path d="M32 16C32 24.8367 24.8367 32 16 32C7.16333 32 0 24.8367 0 16C0 7.16333 7.16333 0 16 0C24.8367 0 32 7.16333 32 16Z" fill="#80DEEA"/>
<path d="M0 16C0 24.822 7.17798 32 16 32C24.822 32 32 24.822 32 16H0Z" fill="#4DD0E1"/>
<path d="M20.949 11.5349L16 6.58594L11.051 11.5349L12.4651 12.949L15 10.4141V17.9851H17V10.4141L19.5349 12.949L20.949 11.5349Z" fill="white"/>
<path d="M15 19.9851H17V21.9851H15V19.9851Z" fill="white"/>
<path d="M15 23.9851H17V25.9851H15V23.9851Z" fill="white"/>
</svg>
