<svg width="32" height="32" viewBox="0 0 32 32" fill="none" xmlns="http://www.w3.org/2000/svg">
<g clip-path="url(#clip0)">
<path d="M31.5533 17.3787C31.5063 16.4287 31.1533 15.5187 30.5733 14.7637C29.2652 13.0607 29.0102 11.7086 29.0102 11.7086C27.9832 9.01756 27.0702 7.2245 26.3992 6.08649C25.6932 4.89144 24.4721 4.08647 23.0951 3.90948C20.3261 3.5515 11.6719 3.5515 8.90282 3.90948C7.52678 4.0875 6.30575 4.89247 5.59972 6.08649C4.92868 7.2245 4.01671 9.01756 2.98866 11.7086C2.98866 11.7086 2.73368 13.0607 1.42564 14.7637C0.846647 15.5187 0.492599 16.4287 0.446642 17.3787C0.34764 19.4398 0.944683 19.8928 1.47869 24.5569C1.52071 24.9239 1.83067 25.1999 2.20071 25.1999H29.8003C30.1704 25.1999 30.4803 24.9229 30.5224 24.5569C30.6723 23.2489 31.1174 20.5958 31.1174 20.5958C31.5073 19.2768 31.5923 18.2018 31.5533 17.3787Z" fill="#E95353"/>
<path d="M28.4292 11.6007C27.6192 9.57364 26.7932 7.80359 25.9712 6.39255C25.3482 5.3255 24.2492 4.58054 23.0332 4.41753C20.2581 4.0495 11.7229 4.05252 8.96783 4.41753C7.75183 4.58054 6.65275 5.32557 6.02974 6.39255C5.19672 7.82157 4.35972 9.6156 3.56171 11.6007C11.8379 12.2517 20.152 12.2517 28.4292 11.6007Z" fill="#168DE2"/>
<path d="M27.2542 13.9447C26.9381 14.0437 26.6442 14.1827 26.3981 14.3207C25.9501 14.5708 25.4901 14.8038 25.0101 14.9858C24.2141 15.2878 24.0791 15.7388 24.0791 15.7388C24.0551 15.7698 24.0321 15.8008 24.01 15.8328C23.406 16.7298 24.199 17.9238 25.2701 17.7718C26.8191 17.5528 28.0951 17.1038 28.7431 16.8438C29.1141 16.6948 29.4041 16.3848 29.4991 15.9958C29.5081 15.9588 29.5161 15.9218 29.5231 15.8858C29.7612 14.6018 28.5012 13.5557 27.2542 13.9447Z" fill="white"/>
<path d="M28.9093 21.132H27.1863C26.9273 21.132 26.7973 21.4449 26.9803 21.629L28.7033 23.352C28.8863 23.535 29.2003 23.405 29.2003 23.146V21.423C29.2003 21.262 29.0703 21.132 28.9093 21.132Z" fill="#FFE21F"/>
<path d="M30.5223 24.5549C30.4802 24.923 30.1692 25.1999 29.7993 25.1999H26.4842V27.124C26.4842 27.805 27.0362 28.358 27.7182 28.358H29.8003C30.4813 28.358 31.0344 27.806 31.0344 27.124V21.1008C30.8973 21.9349 30.6313 23.6019 30.5223 24.5549Z" fill="#454545"/>
<path d="M31.9764 10.2536C31.8763 9.80555 31.4554 9.50159 30.9963 9.50159H30.1643C29.6313 9.50159 29.1993 9.93363 29.1993 10.4666V11.0596H28.7583L29.0113 11.6606H29.9813C30.4833 11.6606 30.9803 11.5526 31.4364 11.3436C31.8473 11.1556 32.0773 10.7056 31.9764 10.2536Z" fill="#ED6262"/>
<path d="M27.8002 16.7118C28.4701 16.7118 29.0132 16.1687 29.0132 15.4987C29.0132 14.8288 28.4701 14.2857 27.8002 14.2857C27.1303 14.2857 26.5872 14.8288 26.5872 15.4987C26.5872 16.1687 27.1303 16.7118 27.8002 16.7118Z" fill="#FFBD49"/>
<path d="M25.3601 17.3468C25.8522 17.3468 26.2512 16.9478 26.2512 16.4557C26.2512 15.9636 25.8522 15.5647 25.3601 15.5647C24.868 15.5647 24.4691 15.9636 24.4691 16.4557C24.4691 16.9478 24.868 17.3468 25.3601 17.3468Z" fill="#FFDB6F"/>
<path d="M23.0511 16.4568L21.6581 18.8828H10.3418L8.94879 16.4568H23.0511Z" fill="#6F6F6F"/>
<path d="M7.98882 15.8327C7.9678 15.8008 7.94479 15.7698 7.91979 15.7388C7.91979 15.7388 7.78475 15.2878 6.98874 14.9858C6.50875 14.8037 6.0497 14.5707 5.60071 14.3207C5.35372 14.1827 5.06071 14.0437 4.74469 13.9447C3.49865 13.5547 2.23766 14.6017 2.47466 15.8857C2.48169 15.9227 2.48968 15.9588 2.49767 15.9958C2.59268 16.3847 2.88266 16.6948 3.25366 16.8438C3.90168 17.1038 5.17769 17.5528 6.72776 17.7718C7.79977 17.9238 8.59282 16.7298 7.98882 15.8327Z" fill="white"/>
<path d="M4.81376 21.132H3.09069C2.92969 21.132 2.79968 21.262 2.79968 21.423V23.146C2.79968 23.405 3.11371 23.535 3.29669 23.352L5.01975 21.629C5.20274 21.446 5.07274 21.132 4.81376 21.132Z" fill="#FFE21F"/>
<path d="M27.4722 24.1389C25.6782 21.0349 23.6151 21.1319 23.6151 21.1319H8.38378C8.38378 21.1319 6.32175 21.0349 4.5267 24.1389H1.42566L1.46369 24.5389C1.49869 24.915 1.81271 25.2 2.18867 25.2H29.8113C30.1873 25.2 30.5013 24.915 30.5364 24.539L30.5744 24.139L27.4722 24.1389Z" fill="#777777"/>
<path d="M2.20065 25.201C1.83062 25.201 1.51962 24.923 1.47766 24.556C1.36867 23.603 1.10164 21.9349 0.965637 21.1019V27.1251C0.965637 27.8061 1.51763 28.3591 2.19968 28.3591H4.28169C4.96272 28.3591 5.51574 27.8071 5.51574 27.1251V25.201H2.20065V25.201Z" fill="#454545"/>
<path d="M2.7993 11.0596V10.4666C2.7993 9.93356 2.36726 9.50159 1.83526 9.50159H1.00328C0.544297 9.50159 0.12328 9.80562 0.0232469 10.2536C-0.0777533 10.7046 0.153252 11.1556 0.563247 11.3426C1.02023 11.5516 1.51627 11.6596 2.01831 11.6596H2.98835L3.24133 11.0586H2.7993V11.0596Z" fill="#ED6262"/>
<path d="M4.19869 16.7118C4.86863 16.7118 5.41173 16.1687 5.41173 15.4987C5.41173 14.8288 4.86863 14.2857 4.19869 14.2857C3.52875 14.2857 2.98566 14.8288 2.98566 15.4987C2.98566 16.1687 3.52875 16.7118 4.19869 16.7118Z" fill="#FFBD49"/>
<path d="M6.64078 17.3468C7.13287 17.3468 7.53179 16.9478 7.53179 16.4557C7.53179 15.9636 7.13287 15.5647 6.64078 15.5647C6.14868 15.5647 5.74976 15.9636 5.74976 16.4557C5.74976 16.9478 6.14868 17.3468 6.64078 17.3468Z" fill="#FFDB6F"/>
<path d="M22.4491 21.9808H9.5508C9.3488 21.9808 9.18579 22.1448 9.18579 22.3458C9.18579 22.5478 9.3488 22.7108 9.5508 22.7108H22.4481C22.6501 22.7108 22.8131 22.5469 22.8131 22.3458C22.8141 22.1438 22.6501 21.9808 22.4491 21.9808Z" fill="#6F6F6F"/>
<path d="M22.4491 23.4379H9.5508C9.3488 23.4379 9.18579 23.6019 9.18579 23.8029C9.18579 24.0049 9.3488 24.1679 9.5508 24.1679H22.4481C22.6501 24.1679 22.8131 24.004 22.8131 23.8029C22.8141 23.6009 22.6501 23.4379 22.4491 23.4379Z" fill="#6F6F6F"/>
<path d="M27.0772 8.50858V8.63356C27.0772 9.13656 26.6642 9.5396 26.1512 9.51859C25.6782 9.48861 25.3162 9.0656 25.3162 8.58258V6.78855C25.3162 6.36553 24.9642 6.04352 24.5412 6.05454C24.5312 6.05454 24.5312 6.05454 24.5212 6.05454C24.5212 6.05454 24.5212 6.05454 24.5112 6.05454C24.0882 6.04455 23.7362 6.36657 23.7362 6.78855V8.41158C23.7362 8.91458 23.3032 9.31762 22.8002 9.28661C22.3272 9.26663 21.9652 8.83363 21.9652 8.3606V6.94956C21.9652 6.52654 21.6132 6.17455 21.1802 6.17455H21.1202C20.7172 6.17455 20.3852 6.50656 20.3852 6.90959V8.74462C20.3852 9.24762 19.9621 9.64962 19.4492 9.62964C18.9761 9.59967 18.6241 9.17665 18.6241 8.69363V6.23353C18.6241 5.84152 18.2821 5.50951 17.8791 5.53948H17.8191C17.4061 5.53948 17.0751 5.87149 17.0751 6.27452V8.7896C17.0751 9.27263 16.6831 9.67463 16.1901 9.67463C15.717 9.67463 15.325 9.29261 15.315 8.81964V6.70863C15.315 6.2256 14.9531 5.80362 14.48 5.77262C13.967 5.75264 13.554 6.15464 13.554 6.65764L13.544 8.60771C13.544 9.11072 13.132 9.51272 12.618 9.49274C12.154 9.46373 11.802 9.05574 11.788 8.59373V6.30553C11.788 5.8305 11.4309 5.40548 10.9559 5.37751C10.4469 5.35553 10.0269 5.7565 10.0269 6.26054V8.6576C10.0129 9.14862 9.60089 9.5396 9.09582 9.51962C8.62279 9.48965 8.27081 9.06663 8.27081 8.58361V6.78855C8.27081 6.36553 7.90883 6.04352 7.48581 6.05454C7.47582 6.05454 7.47582 6.05454 7.47582 6.05454C7.46583 6.05454 7.46583 6.05454 7.46583 6.05454C7.03283 6.04455 6.68084 6.36657 6.68084 6.78855V8.41158C6.68084 8.91458 6.25783 9.31762 5.75482 9.28661C5.31679 9.2696 4.99078 8.90363 4.93483 8.47958C4.46979 9.44259 4.00881 10.4856 3.56079 11.5996C11.8369 12.2517 20.1522 12.2517 28.4283 11.5996C27.9822 10.4826 27.5302 9.45258 27.0772 8.50858Z" fill="#3AA2EB"/>
</g>
<defs>
<clipPath id="clip0">
<rect width="32" height="32" fill="white"/>
</clipPath>
</defs>
</svg>
