<svg width="32" height="32" viewBox="0 0 32 32" fill="none" xmlns="http://www.w3.org/2000/svg">
<g clip-path="url(#clip0)">
<path d="M25.937 13.9805C25.9021 13.9088 25.8412 13.7401 25.7653 13.5292C25.5122 12.8259 25.0276 12.9033 25.0276 12.9033C25.0276 12.9033 25.1259 13.068 24.9619 13.495C24.9125 13.7869 23.2437 15.9558 22.9419 15.397C22.9163 15.3497 22.9097 15.2946 22.9158 15.2413C23.0102 14.4254 23.0418 13.5902 23.0117 12.7478C22.8772 8.85367 21.4487 4.78897 18.9895 1.59527C18.9824 1.58626 18.976 1.57789 18.9689 1.56952C18.9304 1.51969 18.8916 1.47006 18.8526 1.42062C18.8526 1.42055 18.8525 1.42049 18.8525 1.42042V1.4201C18.7475 1.28742 18.6408 1.15616 18.5322 1.02651C18.251 0.690463 18.1081 0.97507 17.8017 0.661108C17.702 0.55875 17.5269 0.619907 17.5108 0.762178C17.1554 3.95974 16.4072 5.18803 15.5987 6.18071C14.5743 7.27755 13.0175 8.56585 12.3769 10.2898C12.0606 10.9957 11.5217 11.6762 11.3572 12.3705C11.3306 12.5133 11.1397 12.527 11.0641 12.442C10.432 11.8123 9.96054 10.5753 9.77212 9.47612C9.70838 9.10442 9.47509 9.3954 9.48081 9.08401C9.47953 8.98358 9.3585 8.93401 9.28704 9.00547C6.00064 12.2726 4.97565 16.8149 5.57241 21.5819C5.66962 22.3737 5.70026 23.1683 5.90112 23.9157C6.56619 26.5031 8.36415 28.5092 10.4376 29.9643C12.3062 31.2755 14.3545 32.1793 16.7673 31.9595C16.7665 31.9594 16.7657 31.9593 16.7649 31.9592C22.0772 31.5647 26.0771 27.6508 26.8253 22.3719C27.3555 19.0439 26.6335 15.9703 25.937 13.9805V13.9805Z" fill="#F9AF38"/>
<path d="M16.5214 31.9789C11.5226 32.3072 6.83154 28.7672 5.58779 23.9274C5.38694 23.18 5.20733 22.3431 5.11012 21.5513C4.51335 16.7842 6.20258 11.6258 9.48899 8.35868C9.56044 8.28722 9.68147 8.33679 9.68276 8.43722C9.67696 8.7488 9.70851 9.10416 9.77224 9.47625C7.15277 12.7317 5.86525 17.2973 6.39764 21.5513C6.49485 22.3431 6.67446 23.18 6.87531 23.9274C8.01155 28.3487 12.0254 31.686 16.5214 31.9789V31.9789Z" fill="#F48931"/>
<path d="M23.0614 15.498C23.0672 15.4986 23.073 15.4993 23.0788 15.4993H23.0607L23.0614 15.498Z" fill="#F48931"/>
<path d="M12.3769 9.57861C12.2777 9.77045 12.1863 9.9623 12.1014 10.1522L12.1007 10.1509C12.1857 9.96101 12.2771 9.76981 12.3769 9.57861Z" fill="#F48931"/>
<path d="M22.2663 19.7683C22.1243 19.4079 22.0855 19.3009 21.9978 19.1218C21.9666 19.058 21.8724 19.0703 21.8585 19.1399C21.8115 19.3743 21.8005 19.5368 21.6801 19.8505C21.4915 20.3532 21.0952 20.797 20.711 21.1605C20.66 21.2097 20.5867 21.196 20.5487 21.1498C20.5313 21.1191 20.5214 21.0893 20.5242 21.0656C20.8863 18.0503 19.9263 14.6417 17.9579 12.0852C17.9533 12.0793 17.9489 12.0741 17.9445 12.0687C17.936 12.0577 17.9275 12.0467 17.919 12.0358C17.6572 11.6994 17.4456 11.5217 17.1492 11.2182C17.0836 11.151 16.9692 11.1909 16.9587 11.2844C16.726 13.3785 16.3527 14.4843 15.8232 15.1343C15.3076 15.7678 14.7785 15.9442 14.1873 16.8481C13.6471 17.6748 13.3569 18.4156 13.1931 19.0945C13.1719 19.1824 12.8261 19.2579 12.7671 19.1893C12.5986 18.9945 12.3987 18.7142 12.2284 18.3301C12.1148 18.0737 12.0357 17.8194 11.9808 17.5806C11.888 17.1765 11.7559 17.1062 11.7534 16.8558C11.7527 16.7899 11.6732 16.7576 11.6264 16.8044C9.33444 19.0828 8.65675 22.3758 9.28146 25.6581C10.1516 30.2297 13.6494 32.0067 16.1848 31.967C16.2956 31.9653 16.437 31.9877 16.5852 31.9761C18.1504 31.8548 21.6071 31.0529 22.8752 26.6833C23.601 24.1822 23.0567 21.7742 22.5338 20.2686C22.467 20.0757 22.2663 19.7683 22.2663 19.7683V19.7683Z" fill="#DF646E"/>
<path d="M13.4166 17.7569L13.1932 18.3363C13.2569 18.1483 13.3309 17.9539 13.4166 17.7569Z" fill="#DC4955"/>
<path d="M16.6301 31.9724C16.4672 31.9904 16.3109 31.9866 16.1951 31.9949C13.6593 32.0213 9.83277 30.3308 8.96305 25.7595C8.33796 22.4769 9.44394 18.7933 11.7357 16.5151C11.7827 16.4681 11.8619 16.5003 11.8625 16.5666C11.8651 16.817 11.8883 17.1762 11.981 17.5805C10.3201 19.8453 9.58685 22.9495 10.1218 25.7595C10.9111 29.9053 14.1458 31.6975 16.6301 31.9724V31.9724Z" fill="#DC4955"/>
<path d="M14.6699 28.6821C14.606 28.6821 14.541 28.6693 14.4786 28.6423C14.2338 28.5365 14.1212 28.2523 14.227 28.0076L16.9743 21.6543C17.0802 21.4096 17.3644 21.297 17.6091 21.4028C17.8538 21.5086 17.9665 21.7928 17.8606 22.0375L15.1133 28.3908C15.0345 28.5731 14.8566 28.6821 14.6699 28.6821Z" fill="#F5FCFF"/>
<path d="M13.5818 24.7407C13.5762 24.7407 13.5706 24.7407 13.5649 24.7406C12.6462 24.7307 11.9076 23.8891 11.9187 22.8646C11.9297 21.8462 12.6774 21.0244 13.5887 21.0244C13.5941 21.0244 13.5996 21.0244 13.605 21.0245C14.064 21.0294 14.4889 21.2367 14.8017 21.6081C15.0967 21.9586 15.2565 22.4176 15.2513 22.9005C15.246 23.3834 15.0765 23.8388 14.7738 24.1829C14.4571 24.543 14.0344 24.7407 13.5818 24.7407ZM13.5886 21.9901C13.205 21.9901 12.8896 22.3855 12.8843 22.875C12.879 23.3671 13.189 23.7709 13.5754 23.775C13.7492 23.7794 13.9168 23.6952 14.0488 23.5452C14.1988 23.3746 14.2829 23.1419 14.2857 22.8901C14.2884 22.6383 14.2093 22.4039 14.063 22.2301C13.9342 22.0772 13.768 21.992 13.5947 21.9901C13.5926 21.9901 13.5906 21.9901 13.5886 21.9901V21.9901Z" fill="#F5FCFF"/>
<path d="M18.411 29.1568C18.4055 29.1568 18.4002 29.1568 18.3946 29.1567C17.4759 29.1468 16.7374 28.3052 16.7484 27.2807C16.7595 26.2622 17.5071 25.4406 18.4184 25.4406C18.4239 25.4406 18.4293 25.4406 18.4348 25.4406C19.3535 25.4505 20.092 26.2921 20.081 27.3166V27.3167C20.07 28.335 19.3223 29.1568 18.411 29.1568V29.1568ZM18.4183 26.4062C18.0346 26.4062 17.7193 26.8016 17.7141 27.2912C17.7087 27.7833 18.0187 28.187 18.4051 28.1912C18.7891 28.1971 19.1101 27.7983 19.1154 27.3062V27.3062C19.1207 26.8141 18.8108 26.4104 18.4244 26.4062C18.4224 26.4062 18.4203 26.4062 18.4183 26.4062ZM19.5982 27.3115H19.5989H19.5982Z" fill="#F5FCFF"/>
<path d="M12.5086 2.78677C12.2867 3.96293 11.5237 4.56581 11.1911 4.8331C11.1294 4.88273 11.0386 4.86516 10.9991 4.79653C10.7864 4.42637 10.2816 3.60879 10.5034 2.43335C10.5536 2.16709 10.5285 1.86774 10.6375 1.63785C11.0101 0.85208 11.6354 0.295935 11.8927 0.0890943C11.9544 0.0394603 12.0452 0.057035 12.0847 0.12566C12.2522 0.417155 12.6425 1.18323 12.6924 2.06975C12.7058 2.30885 12.5557 2.53706 12.5086 2.78677V2.78677Z" fill="#DF646E"/>
<path d="M12.6472 2.80622C12.4258 3.98237 11.4782 4.83342 11.1453 5.10058C11.0835 5.15015 10.9928 5.13277 10.9535 5.06453C10.7411 4.69437 10.1688 3.55877 10.3908 2.38326C10.4456 2.09293 10.5447 1.82255 10.6683 1.57599C10.7179 2.4618 11.108 3.22788 11.2754 3.5195C11.3146 3.58774 11.4054 3.60512 11.4672 3.55555C11.7176 3.3547 12.317 2.82231 12.6916 2.06975C12.7058 2.30923 12.6942 2.55708 12.6472 2.80622V2.80622Z" fill="#DC4955"/>
<path d="M26.7809 6.51505C27.0124 7.58034 26.4729 8.41195 26.2659 8.75038C26.2278 8.81269 26.1452 8.83059 26.0847 8.78964C25.756 8.56697 24.9634 8.06265 24.7319 6.99716C24.6933 6.81974 24.5736 6.63015 24.5743 6.45608C24.5779 5.58513 25.0055 4.79852 25.178 4.51643C25.2161 4.45411 25.2987 4.43621 25.3592 4.47716C25.6097 4.64692 26.23 5.11293 26.6133 5.79687C26.7329 6.01027 26.7259 6.26173 26.7809 6.51505V6.51505Z" fill="#DF646E"/>
<path d="M26.3349 8.967C26.2969 9.0288 26.2139 9.04683 26.154 9.00627C25.8251 8.78353 24.8601 8.05029 24.6283 6.98486C24.5807 6.76598 24.5672 6.54646 24.5781 6.33402C24.9611 7.01834 25.5811 7.48442 25.8321 7.65437C25.892 7.69493 25.9751 7.6769 26.013 7.6151C26.1772 7.34665 26.5738 6.6192 26.613 5.79712C26.7328 6.0102 26.8293 6.24453 26.8847 6.49818C27.1158 7.5636 26.5416 8.62838 26.3349 8.967V8.967Z" fill="#DC4955"/>
<path d="M17.919 12.0358C17.6371 13.5686 17.1433 14.4622 16.6952 15.0126C16.1796 15.646 15.7026 15.8514 15.111 16.7552C14.8277 17.1885 14.5708 17.8432 14.3854 18.3698C14.2045 18.8822 13.7198 19.2247 13.1758 19.2266L12.8507 19.2279C13.0709 19.1285 13.0465 18.6022 13.1933 18.3364C13.385 17.805 13.635 17.2247 13.9522 16.7552C14.5438 15.8514 15.0208 15.646 15.5365 15.0126C16.0656 14.3624 16.6579 13.2345 16.891 11.1403C16.9013 11.047 17.0158 11.0071 17.0815 11.074C17.3403 11.3399 17.5875 11.6193 17.8199 11.9103C17.8534 11.9521 17.8862 11.994 17.919 12.0358Z" fill="#DC4955"/>
<path d="M22.5329 20.269C22.5255 20.2828 22.5174 20.2972 22.5087 20.3118C22.1849 20.8634 21.5826 21.1915 20.943 21.1915H20.6447L20.6454 21.1908C20.6685 21.1889 20.6917 21.1799 20.711 21.1606C21.0953 20.7975 21.4082 20.2806 21.5968 19.7778C21.696 19.519 21.7642 19.2737 21.8119 19.0638C21.8119 19.0632 21.8119 19.0632 21.8119 19.0626C21.8215 19.0188 21.8305 18.9756 21.8389 18.9357C21.8531 18.8662 21.947 18.8533 21.9779 18.9171C22.0661 19.0967 22.1949 19.3761 22.3372 19.7359V19.7366C22.4009 19.8982 22.4672 20.0765 22.5329 20.269V20.269Z" fill="#DC4955"/>
<path d="M23.0788 15.4992H23.0607L23.0614 15.4979C23.0672 15.4986 23.073 15.4992 23.0788 15.4992Z" fill="#F48931"/>
<path d="M17.3603 0.151705C17.0049 3.34926 16.1005 5.07132 15.2919 6.064C14.2677 7.16097 12.742 8.42789 12.1014 10.1519L12.1008 10.1506C11.9524 10.4825 11.8167 10.8395 11.6961 11.1969L11.6952 11.1954C11.6767 11.2511 11.6595 11.3068 11.6405 11.3622C11.6406 11.3624 11.6407 11.3627 11.6409 11.363C11.529 11.7096 11.4326 12.0532 11.3572 12.3703C11.3431 12.4488 11.278 12.4887 11.2104 12.4939V12.4945H11.6628C12.2308 12.4945 12.7326 12.1228 12.8955 11.5787C13.044 11.0827 13.2311 10.5014 13.3883 10.1506L13.3889 10.1519C14.0295 8.42789 15.5552 7.16097 16.5794 6.064C17.3107 5.16596 18.1212 3.67115 18.5319 1.02658C18.2513 0.690533 17.9577 0.36479 17.6513 0.0506342C17.5515 -0.0517237 17.3764 0.00943354 17.3603 0.151705V0.151705Z" fill="#F48931"/>
<path d="M24.9155 12.0551C24.8331 12.469 24.7101 12.9139 24.5459 13.3407C24.5383 13.3859 24.5016 13.4803 24.4444 13.6043C24.4382 13.6178 24.4319 13.6314 24.4252 13.6455C24.4227 13.6507 24.4201 13.6559 24.4177 13.6611C24.3927 13.7136 24.3645 13.7705 24.3338 13.8305C24.3282 13.8414 24.3226 13.8523 24.3168 13.8635C23.9849 14.5057 23.3798 15.4792 23.0698 15.4831L23.0608 15.4992L23.1251 15.4984C23.9221 15.4881 24.67 15.1099 25.1489 14.4728C25.4144 14.1196 25.667 13.7553 25.7652 13.5293C25.5122 12.8263 25.0925 11.6547 24.9155 12.0551V12.0551Z" fill="#F48931"/>
</g>
<defs>
<clipPath id="clip0">
<rect width="32" height="32" fill="white"/>
</clipPath>
</defs>
</svg>
