<svg width="32" height="32" viewBox="0 0 32 32" fill="none" xmlns="http://www.w3.org/2000/svg">
<g clip-path="url(#clip0)">
<path d="M21.6641 8.46485H10.3359C9.81819 8.46485 9.39844 8.0451 9.39844 7.52735V4.14453C9.39844 2.37828 10.8354 0.941345 12.6016 0.941345H19.3984C21.1646 0.941345 22.6016 2.37828 22.6016 4.14453V7.52728C22.6016 8.0451 22.1818 8.46485 21.6641 8.46485ZM11.2734 7.21485H20.7266V4.14453C20.7266 3.41216 20.1307 2.81635 19.3984 2.81635H12.6016C11.8693 2.81635 11.2734 3.41216 11.2734 4.14453V7.21485Z" fill="#575A65"/>
<path d="M19.3984 0.941345H16V2.81635H19.3984C20.1307 2.81635 20.7266 3.41216 20.7266 4.14453V7.21478H16V8.46478H21.6641C22.1818 8.46478 22.6016 8.04503 22.6016 7.52728V4.14453C22.6016 2.37835 21.1646 0.941345 19.3984 0.941345V0.941345Z" fill="#464B52"/>
<path d="M27.2344 31.0586L16 29.375L4.76556 31.0586C2.13781 31.0586 0 28.9207 0 26.293V11.3554C0 8.72766 2.13781 6.58984 4.76556 6.58984L16 7.37497L27.2344 6.58984C29.8622 6.58984 32 8.72766 32 11.3554V26.293C32 28.9207 29.8622 31.0586 27.2344 31.0586Z" fill="#464B52"/>
<path d="M27.2344 6.58984L16 7.21484V30.4336L27.2344 31.0586C29.8622 31.0586 32 28.9208 32 26.293V11.3554C32 8.72766 29.8622 6.58984 27.2344 6.58984V6.58984Z" fill="#292B2F"/>
<path d="M27.2344 31.0586H4.76556V6.58984H27.2344V31.0586Z" fill="#F3F5FC"/>
<path d="M16 6.58984H27.2344V31.0586H16V6.58984Z" fill="#E9ECF4"/>
<path d="M17.8828 25.4101H14.1172C13.5994 25.4101 13.1797 24.9904 13.1797 24.4726V21.6445H10.3516C9.83381 21.6445 9.41406 21.2247 9.41406 20.707V16.9414C9.41406 16.4236 9.83381 16.0039 10.3516 16.0039H13.1797V13.1757C13.1797 12.658 13.5994 12.2382 14.1172 12.2382H17.8828C18.4006 12.2382 18.8203 12.658 18.8203 13.1757V16.0039H21.6484C22.1662 16.0039 22.5859 16.4236 22.5859 16.9414V20.707C22.5859 21.2247 22.1662 21.6445 21.6484 21.6445H18.8203V24.4726C18.8203 24.9904 18.4006 25.4101 17.8828 25.4101Z" fill="#D73424"/>
<path d="M21.6484 16.0039H18.8203V13.1757C18.8203 12.658 18.4006 12.2382 17.8828 12.2382H16V25.4101H17.8828C18.4006 25.4101 18.8203 24.9904 18.8203 24.4726V21.6445H21.6484C22.1662 21.6445 22.5859 21.2247 22.5859 20.707V16.9414C22.5859 16.4236 22.1662 16.0039 21.6484 16.0039Z" fill="#B3113B"/>
</g>
<defs>
<clipPath id="clip0">
<rect width="32" height="32" fill="white"/>
</clipPath>
</defs>
</svg>
