<svg width="32" height="32" viewBox="0 0 32 32" fill="none" xmlns="http://www.w3.org/2000/svg">
<path d="M16 0C7.17733 0 0 7.17733 0 16C0 24.8227 7.17733 32 16 32C24.8227 32 32 24.8227 32 16C32 7.17733 24.8227 0 16 0Z" fill="#4CAF50"/>
<path d="M16 19.3333C14.1613 19.3333 12.6666 17.8373 12.6666 16C12.6666 14.1626 14.1613 12.6666 16 12.6666C17.8386 12.6666 19.3333 14.1626 19.3333 16C19.3333 17.8373 17.8386 19.3333 16 19.3333Z" fill="#FAFAFA"/>
<path d="M16 0C7.17733 0 0 7.17733 0 16C0 24.8227 7.17733 32 16 32V19.3333C14.1613 19.3333 12.6667 17.8373 12.6667 16C12.6667 14.1627 14.1613 12.6667 16 12.6667V0Z" fill="#429846"/>
<path d="M16 12.6666C14.1613 12.6666 12.6666 14.1626 12.6666 16C12.6666 17.8373 14.1613 19.3333 16 19.3333V12.6666Z" fill="#DADADA"/>
<path d="M24.6666 19.3333C22.828 19.3333 21.3333 17.8373 21.3333 16C21.3333 14.1626 22.828 12.6666 24.6666 12.6666C26.5053 12.6666 28 14.1626 28 16C28 17.8373 26.5053 19.3333 24.6666 19.3333Z" fill="#FAFAFA"/>
<path d="M24.6666 12.6666C22.828 12.6666 21.3333 14.1626 21.3333 16C21.3333 17.8373 22.828 19.3333 24.6666 19.3333V12.6666Z" fill="#DADADA"/>
<path d="M7.33333 19.3333C5.49467 19.3333 4 17.8373 4 16C4 14.1626 5.49467 12.6666 7.33333 12.6666C9.172 12.6666 10.6667 14.1626 10.6667 16C10.6667 17.8373 9.172 19.3333 7.33333 19.3333Z" fill="#FAFAFA"/>
<path d="M7.33333 12.6666C5.49467 12.6666 4 14.1626 4 16C4 17.8373 5.49467 19.3333 7.33333 19.3333V12.6666Z" fill="#DADADA"/>
</svg>
