<svg width="22" height="32" viewBox="0 0 22 32" fill="none" xmlns="http://www.w3.org/2000/svg">
<path d="M17.375 0.5H4.625C3.63907 0.501059 2.69385 0.870148 1.99669 1.5263C1.29953 2.18244 0.907375 3.07207 0.90625 4V28C0.907375 28.9279 1.29953 29.8176 1.99669 30.4737C2.69385 31.1299 3.63907 31.4989 4.625 31.5H17.375C18.3609 31.4989 19.3062 31.1299 20.0033 30.4737C20.7005 29.8176 21.0926 28.9279 21.0938 28V4C21.0926 3.07207 20.7005 2.18244 20.0033 1.5263C19.3062 0.870148 18.3609 0.501059 17.375 0.5V0.5ZM20.0312 28C20.0304 28.6628 19.7503 29.2982 19.2523 29.7669C18.7544 30.2356 18.0792 30.4992 17.375 30.5H4.625C3.92078 30.4992 3.24564 30.2356 2.74768 29.7669C2.24972 29.2982 1.96959 28.6628 1.96875 28V4C1.96959 3.3372 2.24972 2.70178 2.74768 2.23311C3.24564 1.76444 3.92078 1.50079 4.625 1.5H17.375C18.0792 1.50079 18.7544 1.76444 19.2523 2.23311C19.7503 2.70178 20.0304 3.3372 20.0312 4V28Z" fill="#B3404A"/>
<path d="M16.8438 2.5H15.25C15.1091 2.5 14.974 2.55268 14.8743 2.64645C14.7747 2.74021 14.7188 2.86739 14.7188 3V4C14.7188 4.13261 14.6628 4.25979 14.5632 4.35355C14.4635 4.44732 14.3284 4.5 14.1875 4.5H7.8125C7.6716 4.5 7.53648 4.44732 7.43685 4.35355C7.33722 4.25979 7.28125 4.13261 7.28125 4V3C7.28125 2.86739 7.22528 2.74021 7.12565 2.64645C7.02602 2.55268 6.8909 2.5 6.75 2.5H5.15625C4.59266 2.5 4.05216 2.71071 3.65365 3.08579C3.25513 3.46086 3.03125 3.96957 3.03125 4.5V27.5C3.03125 28.0304 3.25513 28.5391 3.65365 28.9142C4.05216 29.2893 4.59266 29.5 5.15625 29.5H16.8438C17.4073 29.5 17.9478 29.2893 18.3464 28.9142C18.7449 28.5391 18.9688 28.0304 18.9688 27.5V4.5C18.9688 3.96957 18.7449 3.46086 18.3464 3.08579C17.9478 2.71071 17.4073 2.5 16.8438 2.5ZM17.9062 27.5C17.9062 27.7652 17.7943 28.0196 17.5951 28.2071C17.3958 28.3946 17.1255 28.5 16.8438 28.5H5.15625C4.87446 28.5 4.60421 28.3946 4.40495 28.2071C4.20569 28.0196 4.09375 27.7652 4.09375 27.5V4.5C4.09375 4.23478 4.20569 3.98043 4.40495 3.79289C4.60421 3.60536 4.87446 3.5 5.15625 3.5H6.21875V4C6.21875 4.39782 6.38666 4.77936 6.68555 5.06066C6.98443 5.34196 7.38981 5.5 7.8125 5.5H14.1875C14.6102 5.5 15.0156 5.34196 15.3145 5.06066C15.6133 4.77936 15.7812 4.39782 15.7812 4V3.5H16.8438C17.1255 3.5 17.3958 3.60536 17.5951 3.79289C17.7943 3.98043 17.9062 4.23478 17.9062 4.5V27.5Z" fill="#B3404A"/>
<path d="M8.34375 2.5H13.6562V3.5H8.34375V2.5Z" fill="#B3404A"/>
<path d="M6.21875 14.5V18.5H7.28125V17H9.40625V18.5H10.4688V14.5C10.4688 13.9696 10.2449 13.4609 9.84635 13.0858C9.44784 12.7107 8.90734 12.5 8.34375 12.5C7.78016 12.5 7.23966 12.7107 6.84115 13.0858C6.44263 13.4609 6.21875 13.9696 6.21875 14.5ZM8.34375 13.5C8.62554 13.5 8.89579 13.6054 9.09505 13.7929C9.29431 13.9804 9.40625 14.2348 9.40625 14.5V16H7.28125V14.5C7.28125 14.2348 7.39319 13.9804 7.59245 13.7929C7.79171 13.6054 8.06196 13.5 8.34375 13.5V13.5Z" fill="#B3404A"/>
<path d="M15.7812 16.5V14.5C15.7812 13.9696 15.5574 13.4609 15.1589 13.0858C14.7603 12.7107 14.2198 12.5 13.6562 12.5H12.0625C11.9216 12.5 11.7865 12.5527 11.6868 12.6464C11.5872 12.7402 11.5312 12.8674 11.5312 13V18C11.5312 18.1326 11.5872 18.2598 11.6868 18.3536C11.7865 18.4473 11.9216 18.5 12.0625 18.5H13.6562C14.2198 18.5 14.7603 18.2893 15.1589 17.9142C15.5574 17.5391 15.7812 17.0304 15.7812 16.5ZM14.7188 16.5C14.7188 16.7652 14.6068 17.0196 14.4076 17.2071C14.2083 17.3946 13.938 17.5 13.6562 17.5H12.5938V13.5H13.6562C13.938 13.5 14.2083 13.6054 14.4076 13.7929C14.6068 13.9804 14.7188 14.2348 14.7188 14.5V16.5Z" fill="#B3404A"/>
<path d="M16.3125 9H14.1875V10H15.7812V11.5H16.8438V9.5C16.8438 9.36739 16.7878 9.24021 16.6882 9.14645C16.5885 9.05268 16.4534 9 16.3125 9Z" fill="#B3404A"/>
<path d="M6.21875 10H7.8125V9H5.6875C5.5466 9 5.41148 9.05268 5.31185 9.14645C5.21222 9.24021 5.15625 9.36739 5.15625 9.5V11.5H6.21875V10Z" fill="#B3404A"/>
<path d="M15.7812 21H14.1875V22H16.3125C16.4534 22 16.5885 21.9473 16.6882 21.8536C16.7878 21.7598 16.8438 21.6326 16.8438 21.5V19.5H15.7812V21Z" fill="#B3404A"/>
<path d="M6.21875 19.5H5.15625V21.5C5.15625 21.6326 5.21222 21.7598 5.31185 21.8536C5.41148 21.9473 5.5466 22 5.6875 22H7.8125V21H6.21875V19.5Z" fill="#B3404A"/>
<path d="M11 24.5C10.6848 24.5 10.3767 24.588 10.1146 24.7528C9.85247 24.9176 9.6482 25.1519 9.52757 25.426C9.40694 25.7001 9.37538 26.0017 9.43687 26.2926C9.49837 26.5836 9.65016 26.8509 9.87305 27.0607C10.0959 27.2704 10.3799 27.4133 10.6891 27.4712C10.9982 27.5291 11.3187 27.4993 11.6099 27.3858C11.9011 27.2723 12.15 27.08 12.3252 26.8334C12.5003 26.5867 12.5938 26.2967 12.5938 26C12.5938 25.6022 12.4258 25.2206 12.127 24.9393C11.8281 24.658 11.4227 24.5 11 24.5ZM11 26.5C10.8949 26.5 10.7922 26.4707 10.7049 26.4157C10.6175 26.3608 10.5494 26.2827 10.5092 26.1913C10.469 26.1 10.4585 25.9994 10.479 25.9025C10.4995 25.8055 10.5501 25.7164 10.6244 25.6464C10.6987 25.5765 10.7933 25.5289 10.8964 25.5096C10.9994 25.4903 11.1062 25.5002 11.2033 25.5381C11.3004 25.5759 11.3834 25.64 11.4417 25.7222C11.5001 25.8044 11.5313 25.9011 11.5313 26C11.5313 26.1326 11.4753 26.2598 11.3757 26.3536C11.276 26.4473 11.1409 26.5 11 26.5Z" fill="#B3404A"/>
</svg>
