<svg width="32" height="32" viewBox="0 0 32 32" fill="none" xmlns="http://www.w3.org/2000/svg">
<path d="M29.125 0H0.937501C0.41975 0 0 0.491789 0 1.0984V23.1396C0 23.7462 0.41975 24.238 0.937501 24.238H29.125C29.6428 24.238 30.0625 23.7462 30.0625 23.1396V1.0984C30.0625 0.491789 29.6428 0 29.125 0Z" fill="#FF7149"/>
<path d="M30.0625 1.0984V23.1396C30.0625 23.7459 29.6425 24.238 29.125 24.238H16V0H29.125C29.6425 0 30.0625 0.492082 30.0625 1.0984Z" fill="#FF4E51"/>
<path d="M12.3724 8.8327V15.4074C12.3724 16.2602 13.1657 16.7877 13.7906 16.3504L18.4833 13.0667C19.0919 12.6408 19.0924 11.6079 18.4841 11.1812L13.7914 7.89021C13.1665 7.45202 12.3724 7.97947 12.3724 8.8327V8.8327Z" fill="#EDEFF3"/>
<path d="M18.4831 13.0665L16 14.8042V9.4389L18.4844 11.181C19.0925 11.6079 19.0919 12.6411 18.4831 13.0665Z" fill="#DAE0E7"/>
<path d="M16.6874 32V29.7996C16.6874 23.7353 20.8834 18.8192 26.0593 18.8192V17.2298C26.0593 16.5977 26.697 16.2626 27.0999 16.683L31.7906 21.5769C32.0678 21.8661 32.0701 22.3729 31.7955 22.6655L27.1064 27.6622C26.7047 28.0902 26.0603 27.7559 26.0609 27.1197L26.0624 25.4906C22.5454 25.4906 19.2581 27.5377 17.2905 30.9531L16.6874 32Z" fill="#00DDC0"/>
</svg>
